<?xml version="1.0" encoding="UTF-8"?>
<svg xmlns="http://www.w3.org/2000/svg" xmlns:xlink="http://www.w3.org/1999/xlink" width="96px" height="96px" viewBox="0 0 96 96" version="1.1">
<g id="surface1">
<path style=" stroke:none;fill-rule:evenodd;fill:rgb(21.176471%,27.058824%,28.235294%);fill-opacity:1;" d="M 14.480469 72.929688 L 14.480469 66.796875 C 14.480469 65.988281 14.984375 65.34375 15.820312 65.34375 L 16.050781 65.34375 C 16.886719 65.34375 17.386719 65.992188 17.386719 66.796875 L 17.386719 79.714844 C 17.386719 82.863281 15.832031 85.371094 13.117188 86.964844 C 11.875 87.703125 10.457031 88.089844 9.015625 88.085938 L 8.4375 88.085938 C 5.289062 88.085938 2.785156 86.527344 1.183594 83.820312 C 0.449219 82.578125 0.0625 81.15625 0.0664062 79.714844 L 0.0664062 79.136719 C 0.0664062 75.988281 1.621094 73.480469 4.332031 71.882812 C 5.574219 71.144531 6.992188 70.757812 8.4375 70.761719 L 9.015625 70.761719 C 11.148438 70.761719 12.957031 71.589844 14.480469 72.929688 Z M 2.972656 79.425781 C 2.972656 81.699219 4.074219 83.410156 6.066406 84.503906 C 6.875 84.945312 7.75 85.179688 8.667969 85.179688 C 10.902344 85.179688 12.558594 84.125 13.703125 82.234375 C 14.234375 81.355469 14.480469 80.390625 14.480469 79.367188 C 14.480469 77.394531 13.546875 75.855469 11.957031 74.710938 C 10.996094 74.019531 9.910156 73.671875 8.726562 73.671875 C 6.292969 73.671875 4.539062 74.898438 3.488281 77.085938 C 3.132812 77.824219 2.972656 78.609375 2.972656 79.425781 Z M 27.46875 70.761719 L 27.871094 70.761719 C 31.238281 70.761719 33.796875 72.394531 35.421875 75.335938 C 36.070312 76.511719 36.417969 77.792969 36.417969 79.136719 L 36.417969 79.714844 C 36.417969 82.863281 34.863281 85.375 32.148438 86.96875 C 30.890625 87.703125 29.5 88.085938 28.042969 88.085938 L 27.46875 88.085938 C 24.316406 88.085938 21.8125 86.527344 20.214844 83.820312 C 19.476562 82.578125 19.089844 81.15625 19.09375 79.714844 L 19.09375 79.136719 C 19.09375 75.984375 20.65625 73.488281 23.359375 71.882812 C 24.617188 71.136719 26.007812 70.761719 27.46875 70.761719 Z M 22 79.425781 C 22 81.632812 23.085938 83.257812 24.949219 84.402344 C 25.824219 84.9375 26.789062 85.179688 27.8125 85.179688 C 29.996094 85.179688 31.609375 84.074219 32.734375 82.230469 C 33.269531 81.355469 33.511719 80.390625 33.511719 79.367188 C 33.511719 77.3125 32.519531 75.742188 30.828125 74.605469 C 29.902344 73.984375 28.871094 73.671875 27.753906 73.671875 C 25.320312 73.671875 23.570312 74.898438 22.519531 77.085938 C 22.164062 77.824219 22 78.609375 22 79.425781 Z M 48.496094 73.902344 C 48.058594 73.695312 47.238281 73.628906 46.761719 73.609375 C 44.335938 73.519531 42.578125 74.886719 41.546875 77.027344 C 41.191406 77.765625 41.03125 78.546875 41.03125 79.367188 C 41.03125 81.855469 42.335938 83.597656 44.558594 84.660156 C 45.371094 85.046875 46.417969 85.121094 47.304688 85.121094 C 48.085938 85.121094 49.1875 84.644531 49.878906 84.316406 L 50 84.257812 L 50.535156 84.257812 L 50.59375 84.269531 C 51.257812 84.40625 51.753906 84.824219 51.753906 85.539062 L 51.753906 85.824219 C 51.753906 87.59375 48.523438 88 47.289062 88.085938 C 42.933594 88.386719 39.679688 85.996094 38.4375 81.84375 C 38.222656 81.121094 38.125 80.40625 38.125 79.652344 L 38.125 79.078125 C 38.125 75.929688 39.6875 73.433594 42.390625 71.828125 C 43.648438 71.082031 45.035156 70.707031 46.496094 70.707031 L 47.074219 70.707031 C 48.621094 70.707031 50.046875 71.144531 51.328125 72.019531 L 51.429688 72.089844 L 51.496094 72.199219 C 51.636719 72.429688 51.753906 72.695312 51.753906 72.964844 L 51.753906 73.253906 C 51.753906 73.996094 51.199219 74.394531 50.53125 74.523438 L 50.476562 74.535156 L 50.304688 74.535156 C 49.871094 74.535156 48.882812 74.085938 48.496094 73.902344 Z M 57.921875 75.871094 C 59.050781 74.738281 60.183594 73.613281 61.328125 72.5 C 61.648438 72.191406 62.855469 70.878906 63.332031 70.878906 L 63.851562 70.878906 L 63.910156 70.890625 C 64.574219 71.027344 65.070312 71.445312 65.070312 72.160156 L 65.070312 72.445312 C 65.070312 72.933594 64.503906 73.496094 64.1875 73.832031 C 63.519531 74.539062 62.816406 75.222656 62.136719 75.914062 L 58.625 79.480469 C 60.136719 80.996094 61.644531 82.511719 63.144531 84.039062 C 63.5625 84.457031 63.972656 84.882812 64.382812 85.3125 C 64.527344 85.460938 64.742188 85.652344 64.863281 85.863281 C 64.992188 86.058594 65.070312 86.28125 65.070312 86.519531 L 65.070312 86.820312 L 65.054688 86.886719 C 64.890625 87.550781 64.472656 88.085938 63.734375 88.085938 L 63.503906 88.085938 C 63.023438 88.085938 62.480469 87.542969 62.152344 87.230469 C 61.472656 86.589844 60.816406 85.917969 60.152344 85.265625 L 57.921875 83.074219 L 57.921875 86.574219 C 57.921875 87.382812 57.417969 88.03125 56.582031 88.03125 L 56.355469 88.03125 C 55.519531 88.03125 55.015625 87.382812 55.015625 86.574219 L 55.015625 66.851562 C 55.015625 66.046875 55.519531 65.402344 56.355469 65.402344 L 56.582031 65.402344 C 57.417969 65.402344 57.921875 66.046875 57.921875 66.851562 Z M 94.136719 70.878906 L 94.425781 70.878906 C 95.296875 70.878906 95.878906 71.464844 95.878906 72.332031 C 95.878906 73.535156 94.730469 73.84375 93.734375 73.84375 C 92.429688 73.84375 91.183594 74.632812 90.285156 75.519531 C 89.164062 76.625 88.671875 78.039062 88.671875 79.597656 L 88.671875 86.632812 C 88.671875 87.4375 88.167969 88.085938 87.332031 88.085938 L 87.101562 88.085938 C 86.269531 88.085938 85.765625 87.4375 85.765625 86.632812 L 85.765625 79.195312 C 85.765625 76.335938 87.15625 74.007812 89.472656 72.371094 C 90.859375 71.394531 92.445312 70.878906 94.136719 70.878906 Z M 73.484375 84.820312 C 74.542969 85.1875 75.75 85.136719 76.832031 84.945312 C 77.386719 84.710938 78.808594 84.089844 79.328125 84.183594 L 79.410156 84.195312 L 79.484375 84.234375 C 79.804688 84.386719 80.109375 84.605469 80.269531 84.929688 C 80.652344 85.691406 80.46875 86.453125 79.722656 86.886719 L 79.472656 87.03125 C 76.71875 88.621094 73.785156 88.398438 71.039062 86.914062 C 69.722656 86.203125 68.71875 85.148438 67.976562 83.863281 L 67.804688 83.5625 C 66.035156 80.5 66.273438 77.277344 68.269531 74.363281 C 68.957031 73.355469 69.859375 72.578125 70.910156 71.96875 L 71.308594 71.738281 C 73.90625 70.238281 76.6875 70.34375 79.351562 71.65625 C 80.785156 72.363281 81.949219 73.417969 82.75 74.804688 L 82.894531 75.054688 C 83.472656 76.0625 82.722656 76.941406 81.945312 77.539062 C 81.042969 78.234375 80.128906 79.074219 79.265625 79.820312 C 77.335938 81.484375 75.414062 83.152344 73.484375 84.820312 Z M 70.988281 83.066406 C 73.144531 81.21875 75.304688 79.367188 77.453125 77.511719 C 78.1875 76.875 78.996094 76.21875 79.722656 75.550781 C 79.136719 74.816406 78.160156 74.285156 77.332031 73.964844 C 75.65625 73.328125 74.003906 73.542969 72.464844 74.429688 C 70.453125 75.589844 69.597656 77.441406 69.671875 79.742188 C 69.703125 80.648438 69.945312 81.523438 70.425781 82.296875 C 70.59375 82.566406 70.785156 82.824219 70.988281 83.066406 Z M 55.308594 24.835938 L 63.882812 24.835938 L 63.882812 33.601562 L 68.21875 33.601562 C 70.21875 33.601562 72.28125 33.246094 74.175781 32.605469 C 75.109375 32.289062 76.152344 31.847656 77.070312 31.292969 C 75.863281 29.714844 75.242188 27.71875 75.0625 25.753906 C 74.816406 23.078125 75.355469 19.59375 77.164062 17.5 L 78.066406 16.457031 L 79.140625 17.320312 C 81.84375 19.492188 84.121094 22.53125 84.519531 25.992188 C 87.777344 25.03125 91.597656 25.257812 94.46875 26.914062 L 95.648438 27.59375 L 95.027344 28.804688 C 92.601562 33.542969 87.523438 35.011719 82.5625 34.75 C 75.140625 53.242188 58.976562 61.996094 39.378906 61.996094 C 29.253906 61.996094 19.964844 58.210938 14.675781 49.226562 L 14.589844 49.082031 L 13.820312 47.511719 C 12.03125 43.558594 11.4375 39.226562 11.839844 34.898438 L 11.960938 33.601562 L 19.292969 33.601562 L 19.292969 24.835938 L 27.867188 24.835938 L 27.867188 16.261719 L 45.019531 16.261719 L 45.019531 7.6875 L 55.308594 7.6875 L 55.308594 24.835938 "/>
<path style=" stroke:none;fill-rule:evenodd;fill:rgb(13.333333%,62.745098%,78.431373%);fill-opacity:1;" d="M 83.089844 28.078125 C 83.664062 23.613281 80.320312 20.101562 78.246094 18.433594 C 75.855469 21.199219 75.484375 28.441406 79.234375 31.488281 C 77.140625 33.347656 72.734375 35.03125 68.21875 35.03125 L 13.265625 35.03125 C 12.824219 39.742188 13.652344 44.082031 15.542969 47.796875 L 16.167969 48.941406 C 16.5625 49.613281 16.996094 50.261719 17.460938 50.886719 C 19.722656 51.03125 21.804688 51.082031 23.710938 51.039062 C 27.457031 50.957031 30.511719 50.515625 32.828125 49.710938 C 33.167969 49.605469 33.53125 49.789062 33.648438 50.125 C 33.765625 50.460938 33.59375 50.832031 33.261719 50.957031 C 32.953125 51.066406 32.632812 51.164062 32.300781 51.261719 C 30.476562 51.78125 28.519531 52.132812 25.996094 52.289062 C 26.148438 52.289062 25.839844 52.308594 25.839844 52.308594 C 25.753906 52.316406 25.644531 52.328125 25.558594 52.332031 C 24.566406 52.386719 23.496094 52.398438 22.398438 52.398438 C 21.199219 52.398438 20.019531 52.378906 18.703125 52.308594 L 18.667969 52.332031 C 23.246094 57.480469 30.40625 60.566406 39.378906 60.566406 C 58.375 60.566406 74.484375 52.144531 81.617188 33.242188 C 86.679688 33.761719 91.542969 32.472656 93.753906 28.152344 C 90.230469 26.121094 85.699219 26.769531 83.089844 28.078125 "/>
<path style=" stroke:none;fill-rule:evenodd;fill:rgb(21.568627%,69.411765%,85.098039%);fill-opacity:1;" d="M 83.089844 28.078125 C 83.664062 23.613281 80.320312 20.101562 78.246094 18.433594 C 75.855469 21.199219 75.484375 28.441406 79.234375 31.488281 C 77.140625 33.347656 72.734375 35.03125 68.21875 35.03125 L 16.519531 35.03125 C 16.292969 42.25 18.972656 47.726562 23.710938 51.039062 C 27.457031 50.957031 30.511719 50.515625 32.828125 49.710938 C 33.167969 49.605469 33.53125 49.789062 33.648438 50.125 C 33.765625 50.460938 33.59375 50.832031 33.261719 50.957031 C 32.953125 51.066406 32.632812 51.164062 32.300781 51.261719 C 30.476562 51.78125 28.351562 52.175781 25.828125 52.332031 C 25.828125 52.332031 25.769531 52.273438 25.765625 52.273438 C 32.230469 55.589844 41.601562 55.578125 52.347656 51.449219 C 64.398438 46.820312 75.609375 38.003906 83.433594 27.917969 C 83.316406 27.96875 83.199219 28.023438 83.089844 28.078125 "/>
<path style=" stroke:none;fill-rule:evenodd;fill:rgb(10.588235%,50.588235%,64.705882%);fill-opacity:1;" d="M 13.367188 40.757812 C 13.707031 43.28125 14.445312 45.644531 15.542969 47.796875 L 16.167969 48.941406 C 16.5625 49.613281 16.996094 50.261719 17.460938 50.886719 C 19.722656 51.03125 21.804688 51.082031 23.710938 51.039062 C 27.457031 50.957031 30.511719 50.515625 32.828125 49.710938 C 33.167969 49.605469 33.53125 49.789062 33.648438 50.125 C 33.765625 50.460938 33.59375 50.832031 33.261719 50.957031 C 32.953125 51.066406 32.632812 51.164062 32.300781 51.261719 C 30.476562 51.78125 28.363281 52.152344 25.839844 52.308594 C 25.753906 52.316406 25.601562 52.316406 25.515625 52.320312 C 24.523438 52.378906 23.460938 52.410156 22.367188 52.410156 C 21.167969 52.410156 19.941406 52.386719 18.625 52.320312 C 23.203125 57.46875 30.40625 60.566406 39.378906 60.566406 C 55.640625 60.566406 69.785156 54.394531 77.996094 40.757812 L 13.367188 40.757812 "/>
<path style=" stroke:none;fill-rule:evenodd;fill:rgb(11.372549%,56.862745%,70.588235%);fill-opacity:1;" d="M 17.011719 40.757812 C 17.984375 45.191406 20.320312 48.667969 23.710938 51.039062 C 27.457031 50.957031 30.511719 50.515625 32.828125 49.710938 C 33.167969 49.605469 33.53125 49.789062 33.648438 50.125 C 33.765625 50.460938 33.59375 50.832031 33.261719 50.957031 C 32.953125 51.066406 32.632812 51.164062 32.300781 51.261719 C 30.476562 51.78125 28.320312 52.152344 25.796875 52.308594 C 32.257812 55.625 41.605469 55.578125 52.347656 51.449219 C 58.847656 48.953125 65.105469 45.234375 70.71875 40.757812 L 17.011719 40.757812 "/>
<path style=" stroke:none;fill-rule:evenodd;fill:rgb(13.72549%,63.921569%,76.078431%);fill-opacity:1;" d="M 20.722656 26.265625 L 28.152344 26.265625 L 28.152344 33.699219 L 20.722656 33.699219 Z M 21.339844 26.886719 L 21.929688 26.886719 L 21.929688 33.078125 L 21.339844 33.078125 Z M 22.445312 26.886719 L 23.054688 26.886719 L 23.054688 33.078125 L 22.445312 33.078125 Z M 23.570312 26.886719 L 24.179688 26.886719 L 24.179688 33.078125 L 23.570312 33.078125 Z M 24.695312 26.886719 L 25.304688 26.886719 L 25.304688 33.078125 L 24.695312 33.078125 Z M 25.824219 26.886719 L 26.433594 26.886719 L 26.433594 33.078125 L 25.824219 33.078125 Z M 26.949219 26.886719 L 27.535156 26.886719 L 27.535156 33.078125 L 26.949219 33.078125 Z M 29.296875 17.691406 L 36.730469 17.691406 L 36.730469 25.121094 L 29.296875 25.121094 Z M 29.917969 18.3125 L 30.503906 18.3125 L 30.503906 24.503906 L 29.917969 24.503906 Z M 31.019531 18.3125 L 31.628906 18.3125 L 31.628906 24.503906 L 31.019531 24.503906 Z M 32.144531 18.3125 L 32.753906 18.3125 L 32.753906 24.503906 L 32.144531 24.503906 Z M 33.269531 18.3125 L 33.882812 18.3125 L 33.882812 24.503906 L 33.269531 24.503906 Z M 34.398438 18.3125 L 35.007812 18.3125 L 35.007812 24.503906 L 34.398438 24.503906 Z M 35.523438 18.3125 L 36.109375 18.3125 L 36.109375 24.503906 L 35.523438 24.503906 Z M 35.523438 18.3125 "/>
<path style=" stroke:none;fill-rule:evenodd;fill:rgb(20.392157%,73.333333%,87.058824%);fill-opacity:1;" d="M 29.296875 26.265625 L 36.730469 26.265625 L 36.730469 33.699219 L 29.296875 33.699219 Z M 29.917969 26.886719 L 30.503906 26.886719 L 30.503906 33.078125 L 29.917969 33.078125 Z M 31.019531 26.886719 L 31.628906 26.886719 L 31.628906 33.078125 L 31.019531 33.078125 Z M 32.144531 26.886719 L 32.753906 26.886719 L 32.753906 33.078125 L 32.144531 33.078125 Z M 33.269531 26.886719 L 33.882812 26.886719 L 33.882812 33.078125 L 33.269531 33.078125 Z M 34.398438 26.886719 L 35.007812 26.886719 L 35.007812 33.078125 L 34.398438 33.078125 Z M 35.523438 26.886719 L 36.109375 26.886719 L 36.109375 33.078125 L 35.523438 33.078125 Z M 35.523438 26.886719 "/>
<path style=" stroke:none;fill-rule:evenodd;fill:rgb(13.72549%,63.921569%,76.078431%);fill-opacity:1;" d="M 37.871094 26.265625 L 45.304688 26.265625 L 45.304688 33.699219 L 37.871094 33.699219 Z M 38.492188 26.886719 L 39.078125 26.886719 L 39.078125 33.078125 L 38.492188 33.078125 Z M 39.59375 26.886719 L 40.203125 26.886719 L 40.203125 33.078125 L 39.59375 33.078125 Z M 40.71875 26.886719 L 41.328125 26.886719 L 41.328125 33.078125 L 40.71875 33.078125 Z M 41.847656 26.886719 L 42.457031 26.886719 L 42.457031 33.078125 L 41.847656 33.078125 Z M 42.972656 26.886719 L 43.582031 26.886719 L 43.582031 33.078125 L 42.972656 33.078125 Z M 44.097656 26.886719 L 44.683594 26.886719 L 44.683594 33.078125 L 44.097656 33.078125 Z M 44.097656 26.886719 "/>
<path style=" stroke:none;fill-rule:evenodd;fill:rgb(20.392157%,73.333333%,87.058824%);fill-opacity:1;" d="M 37.871094 17.691406 L 45.304688 17.691406 L 45.304688 25.121094 L 37.871094 25.121094 Z M 38.492188 18.3125 L 39.078125 18.3125 L 39.078125 24.503906 L 38.492188 24.503906 Z M 39.59375 18.3125 L 40.203125 18.3125 L 40.203125 24.503906 L 39.59375 24.503906 Z M 40.71875 18.3125 L 41.328125 18.3125 L 41.328125 24.503906 L 40.71875 24.503906 Z M 41.847656 18.3125 L 42.457031 18.3125 L 42.457031 24.503906 L 41.847656 24.503906 Z M 42.972656 18.3125 L 43.582031 18.3125 L 43.582031 24.503906 L 42.972656 24.503906 Z M 44.097656 18.3125 L 44.683594 18.3125 L 44.683594 24.503906 L 44.097656 24.503906 Z M 46.445312 26.265625 L 53.878906 26.265625 L 53.878906 33.699219 L 46.445312 33.699219 Z M 47.066406 26.886719 L 47.652344 26.886719 L 47.652344 33.078125 L 47.066406 33.078125 Z M 48.167969 26.886719 L 48.777344 26.886719 L 48.777344 33.078125 L 48.167969 33.078125 Z M 49.292969 26.886719 L 49.90625 26.886719 L 49.90625 33.078125 L 49.292969 33.078125 Z M 50.421875 26.886719 L 51.03125 26.886719 L 51.03125 33.078125 L 50.421875 33.078125 Z M 51.546875 26.886719 L 52.15625 26.886719 L 52.15625 33.078125 L 51.546875 33.078125 Z M 52.671875 26.886719 L 53.257812 26.886719 L 53.257812 33.078125 L 52.671875 33.078125 Z M 52.671875 26.886719 "/>
<path style=" stroke:none;fill-rule:evenodd;fill:rgb(13.72549%,63.921569%,76.078431%);fill-opacity:1;" d="M 46.445312 17.691406 L 53.878906 17.691406 L 53.878906 25.121094 L 46.445312 25.121094 Z M 47.066406 18.3125 L 47.652344 18.3125 L 47.652344 24.503906 L 47.066406 24.503906 Z M 48.167969 18.3125 L 48.777344 18.3125 L 48.777344 24.503906 L 48.167969 24.503906 Z M 49.292969 18.3125 L 49.90625 18.3125 L 49.90625 24.503906 L 49.292969 24.503906 Z M 50.421875 18.3125 L 51.03125 18.3125 L 51.03125 24.503906 L 50.421875 24.503906 Z M 51.546875 18.3125 L 52.15625 18.3125 L 52.15625 24.503906 L 51.546875 24.503906 Z M 52.671875 18.3125 L 53.257812 18.3125 L 53.257812 24.503906 L 52.671875 24.503906 Z M 52.671875 18.3125 "/>
<path style=" stroke:none;fill-rule:evenodd;fill:rgb(20.392157%,73.333333%,87.058824%);fill-opacity:1;" d="M 46.445312 9.117188 L 53.878906 9.117188 L 53.878906 16.546875 L 46.445312 16.546875 Z M 47.066406 9.734375 L 47.652344 9.734375 L 47.652344 15.929688 L 47.066406 15.929688 Z M 48.167969 9.734375 L 48.777344 9.734375 L 48.777344 15.929688 L 48.167969 15.929688 Z M 49.292969 9.734375 L 49.90625 9.734375 L 49.90625 15.929688 L 49.292969 15.929688 Z M 50.421875 9.734375 L 51.03125 9.734375 L 51.03125 15.929688 L 50.421875 15.929688 Z M 51.546875 9.734375 L 52.15625 9.734375 L 52.15625 15.929688 L 51.546875 15.929688 Z M 52.671875 9.734375 L 53.257812 9.734375 L 53.257812 15.929688 L 52.671875 15.929688 Z M 52.671875 9.734375 "/>
<path style=" stroke:none;fill-rule:evenodd;fill:rgb(13.72549%,63.921569%,76.078431%);fill-opacity:1;" d="M 55.023438 26.265625 L 62.453125 26.265625 L 62.453125 33.699219 L 55.023438 33.699219 Z M 55.640625 26.886719 L 56.226562 26.886719 L 56.226562 33.078125 L 55.640625 33.078125 Z M 56.742188 26.886719 L 57.351562 26.886719 L 57.351562 33.078125 L 56.742188 33.078125 Z M 57.871094 26.886719 L 58.480469 26.886719 L 58.480469 33.078125 L 57.871094 33.078125 Z M 58.996094 26.886719 L 59.605469 26.886719 L 59.605469 33.078125 L 58.996094 33.078125 Z M 60.121094 26.886719 L 60.730469 26.886719 L 60.730469 33.078125 L 60.121094 33.078125 Z M 61.246094 26.886719 L 61.835938 26.886719 L 61.835938 33.078125 L 61.246094 33.078125 Z M 61.246094 26.886719 "/>
<path style=" stroke:none;fill-rule:evenodd;fill:rgb(82.745098%,92.54902%,92.54902%);fill-opacity:1;" d="M 36.265625 45.746094 C 37.003906 45.738281 37.691406 46.125 38.0625 46.765625 C 38.433594 47.402344 38.433594 48.191406 38.0625 48.832031 C 37.691406 49.46875 37.003906 49.859375 36.261719 49.847656 C 35.140625 49.832031 34.242188 48.917969 34.242188 47.796875 C 34.242188 46.675781 35.140625 45.761719 36.265625 45.746094 "/>
<path style=" stroke:none;fill-rule:evenodd;fill:rgb(21.176471%,27.058824%,28.235294%);fill-opacity:1;" d="M 36.265625 46.328125 C 36.453125 46.328125 36.628906 46.363281 36.796875 46.429688 C 36.5625 46.5625 36.449219 46.839844 36.515625 47.101562 C 36.585938 47.363281 36.824219 47.542969 37.09375 47.546875 C 37.320312 47.546875 37.519531 47.417969 37.621094 47.234375 C 37.867188 47.832031 37.695312 48.519531 37.195312 48.929688 C 36.695312 49.339844 35.988281 49.375 35.449219 49.019531 C 34.910156 48.660156 34.671875 47.988281 34.859375 47.371094 C 35.046875 46.753906 35.617188 46.328125 36.265625 46.328125 M 0 41.5 L 95.371094 41.5 C 93.296875 40.972656 88.800781 40.261719 89.542969 37.539062 C 85.765625 41.90625 76.660156 40.605469 74.363281 38.449219 C 71.804688 42.160156 56.90625 40.75 55.867188 37.859375 C 52.65625 41.625 42.714844 41.625 39.507812 37.859375 C 38.46875 40.75 23.570312 42.160156 21.007812 38.449219 C 18.710938 40.605469 9.605469 41.90625 5.828125 37.539062 C 6.570312 40.261719 2.078125 40.972656 0 41.5 "/>
<path style=" stroke:none;fill-rule:evenodd;fill:rgb(74.117647%,85.098039%,84.313725%);fill-opacity:1;" d="M 41.714844 60.519531 C 36.636719 58.113281 33.851562 54.835938 32.300781 51.261719 C 30.414062 51.800781 28.144531 52.144531 25.511719 52.292969 C 24.519531 52.347656 23.476562 52.375 22.378906 52.375 C 21.117188 52.375 19.785156 52.335938 18.390625 52.265625 C 23.046875 56.917969 28.773438 60.5 39.378906 60.566406 C 40.164062 60.566406 40.941406 60.550781 41.714844 60.519531 "/>
<path style=" stroke:none;fill-rule:evenodd;fill:rgb(82.745098%,92.54902%,92.54902%);fill-opacity:1;" d="M 34.183594 54.558594 C 33.484375 53.605469 32.800781 52.40625 32.300781 51.261719 C 30.414062 51.800781 28.144531 52.144531 25.511719 52.292969 C 27.320312 53.273438 29.910156 54.183594 34.183594 54.558594 "/>
</g>
</svg>
